<svg xmlns="http://www.w3.org/2000/svg" xml:space="preserve" id="Capa_1" width="222.6152649" height="60" x="0" y="0" style="enable-background:new 0 0 222.6152649 60" version="1.1">
<g fill="#20201e">
  <path d="M54.0351105.009724c-5.3074837.3960388-4.786274 11.1647577-2.9001045 14.6840048 1.1676826 2.1773825 3.5940857 3.1027746 4.0241814 5.1223402.4967079 2.3352833-.813839 6.9582558-1.6712036 10.0746536-1.0070419 3.6703358-2.0277061 6.5036602-2.9545097 9.0512486-2.3148499 6.363533-4.621563 11.9880676-8.2768631 15.7086563-1.1540642 1.1758232-3.2252922 2.9191246-5.3156281 2.3897705-1.5446167-.3905563-2.435955-3.0905647-2.4877014-5.1224213-.1115532-4.4609222 1.0901031-8.9886208 1.9351768-13.3175545 2.4523163-12.5691681 6.0042076-25.7574768 8.1857414-37.7374039h-7.0003662c-5.8355103 18.5543537-9.7630062 37.1277275-19.2401962 51.9096642-1.1376991 1.7759438-3.113739 5.0311356-5.3401289 4.7807884-2.3734093-.2653809-2.2305431-5.0516548-1.5691214-8.0251846 1.0615301-4.7617683 3.0878239-10.1058846 4.691-15.7086563 1.5105629-5.280241 3.433527-10.9170666 4.2201233-16.2218113 1.073658-7.2412472.7361774-14.5913897-3.791441-16.3931675C10.5588827-1.1755685 6.2340188 7.5844655 4.4417105 11.4507446 3.0304899 14.4936323 1.6627936 18.32868.5495988 21.5253983c-.3511854 1.0111122-1.1690123 2.4658566.2775927 2.90135.8233089-.4517727.8886786-1.5881424 1.2329698-2.5597992 1.1281459-3.1926479 2.3924301-6.2614508 3.8213432-9.2213602 1.1050544-2.2903471 4.3752828-9.6296082 7.7489219-9.2213593 3.4688282.420542.7416592 9.7834396.0557346 11.9526825-1.3009977 4.1138868-2.6073942 8.453784-3.7301407 12.2942324-2.8687901 9.8051167-6.1893535 24.1883564-1.1009855 30.3939877 3.3287039 4.0622215 7.8278303.8070297 10.4937849-3.0742836 5.4884758-7.9869804 7.6577187-16.6857948 11.7103901-26.4664936-2.3039703 10.7891521-4.4187241 22.0150433.0762501 28.5160427 5.6013565 8.1040115 14.1667786-2.4646111 17.0015144-7.5121117 2.9055023-5.1740875 4.8366051-10.6625671 6.3989143-15.7086563 1.8317642-5.9267101 3.3341866-11.6328926 3.8867149-18.4427185.4286004-5.2816525.4816743-15.7304997-4.387493-15.3671872zm132.7544098 45.5574261c-.4953766-.1102257-.6028595-1.1009026-1.1404266-.6831017-.8042908 2.2494812-1.7936401 3.8580551-3.2171631 5.976963-.9062805 1.3486748-2.8945312 4.6665001-4.9562988 4.2677193-2.0168152-.3864861-.613739-4.4201355-.2122955-5.8055267 1.1866913-4.0989342 2.3570404-8.2809296 3.5137634-12.4833603l-8.5667572.0053978c-2.4263916 7.4005585-5.4816589 14.5764389-9.3588257 18.2834892-1.2995758 1.2438507-3.0714569 2.4863739-5.474762 2.2196617-.0368042-.0040703-.0681152-.0149536-.1048279-.0217628-3.3600159-.6232948-.5470428-9.5398178.5593414-13.9803886.2585602-1.035614.5184631-2.0630875.7797852-3.087822l-9.1315765.0230904c-.2368164 3.3355141-.133316 6.7132225.4041748 10.0678406-.8151703 3.1423149-8.4238739 10.1603737-8.2197113 2.3896904.0925293-3.5083656 1.6643982-7.389595 2.7652893-10.9278641 1.0982513-3.5233994 2.0658417-7.1827736 3.0933075-10.7578373 2.740799-9.546629 5.9484711-23.9297829.0068207-29.5406933-4.5970612-4.3398981-9.0376282 1.6235267-11.3987427 5.8068533-4.8747406 8.6334476-7.9898071 17.6942482-11.4246674 27.1496754.0149536.2898865-.2272568.4218712-.170105 0l.0136185-.1714401c1.0492401-5.2217655 2.2699127-10.9211349 2.7516708-17.0750217.5035248-6.4370432-.3932953-14.7942266-4.617485-16.7348843-2.6945267-1.2356279-5.8041153.4015209-7.3378525 2.049551-6.3485794 6.8153071-9.6541138 21.8299809-13.4374084 30.9070606 1.605835-9.3030071 4.8596954-26.3997917-.6531982-31.9317932-4.3561783-4.3725414-9.6677399 1.7691342-11.5416946 5.4653029C87.8681107 2.88574 84.5448837-1.0581191 77.812561.4878279c-3.8812332.8927486-8.1857452 5.2190247-11.4096222 9.3928814-3.2361755 4.1888084-5.9144211 9.6622515-7.5093765 14.6839209-3.8391151 12.0914783-4.7018814 27.0490055 2.863308 32.7837601 2.736721 2.0752983 6.7268486 2.3447533 10.6502724.8546219 7.4440002-2.8251839 13.1665497-11.3293839 16.4504013-19.6362343 3.3218918-8.4075184 5.0965042-20.9617348 1.8847504-29.5406933 1.7515259-1.7732873 2.812973-6.5023298 6.2764893-5.8055243 1.6615677.3334103 1.9514542 3.5749817 1.9201355 5.8055243-.0598831 4.2568359-1.0233154 8.6130142-1.9079285 12.9774151-2.5203476 12.4411697-5.5578308 25.4307938-8.415741 36.3696251h7.3420029c4.1452866-13.2986183 8.4115906-28.0940914 13.5448914-40.6387558 1.6684647-4.079915 3.6893616-8.8226624 6.0913391-11.9526825.6872559-.8954067 2.3788071-2.910902 4.1493607-2.7326515 1.7527695.1782508 2.4440918 3.1096694 2.48629 5.1237526.0965958 4.4949741-1.1377029 8.9764099-1.9351807 13.3189659-2.3638535 12.8767452-5.6381531 25.3192425-8.6280441 36.8813705h7.5135193c2.8060837-10.4937859 6.0641022-20.6187744 9.8228149-30.5641003 2.4836273-6.566288 5.585083-14.535656 9.5316772-20.6609688 1.1703339-1.8168116 3.0973816-4.8856144 5.3265076-4.6106796 1.2097931.1496775 2.059021 1.8834271 2.071228 3.927496.0231781 3.384521-1.2778168 7.1105914-2.210022 10.4162045-.9254761 3.2742977-1.9434052 6.5690289-2.8402252 9.7316914-2.4495697 8.6511383-8.1612396 24.3285637-2.3229828 30.7356224 3.950592 4.3412247 10.1698456-.2858162 11.9988556-4.7807922.5198822 1.9242935 1.4942932 3.9479294 2.9558411 5.3781738l-.0081329.002739c4.3330841 4.4772835 9.6010284.3020973 12.3922424-4.2336617 1.5717773-2.3258133 2.8442078-4.9346199 3.9642029-7.1228867-.4272614 6.8560905.3851624 15.0758934 6.5976105 12.6357841 4.6215515-1.8140717 7.2480621-7.6835518 9.8350983-11.7825699l-3.0157318 10.927948h7.461792c.330658-1.1935158.6600037-2.3951721.9866028-3.6023102 1.7011108-6.0858574 3.5614471-12.0533524 5.585083-17.9405289l-8.1353302.0054855c-.8900912 3.2551949-1.7106631 6.258712-2.3870394 8.7313797zM82.9104767 21.8319798c-2.1012115 9.5302658-4.1303329 18.2549152-7.3256378 27.1510029-1.2697678 3.5315437-4.2079086 10.0964165-9.2309113 8.53685-6.0437431-1.8780289-1.7977066-15.413372-.5294342-20.8324089l6.8793488-23.7338409c1.4003372-4.0949488 3.2102585-10.0147667 7.3745575-10.927948 3.8867188-.8532112 5.6708832 1.6045055 5.7184753 5.2938633.0652924 5.220353-1.8725433 9.9194945-2.8863983 14.5124816zm138.5331116 28.5172061c-.8152466 3.1423111-8.4238739 10.1617851-8.2198029 2.3897705.0925293-3.5083656 1.6643982-7.389595 2.7653046-10.927948.511734-1.6412163.9934998-3.3137512 1.4684448-4.9930954l-7.9557495.0054817c-2.0140839 7.7311478-3.305603 16.2204018.6164856 20.5262413 3.9506683 4.339817 10.1698456-.2871437 11.9989471-4.7807884 0 0 .4898987-1.169014.4980469-1.5350647 0-.3225326-1.1716766-.684597-1.1716766-.684597z"/>
  <path d="M166.0951691 15.1735764c1.3132019-3.7314701 3.8349609-13.2699594 9.150589-11.7824879.0094757.0040698.0693512.0230911.0897827.0326431 5.5292664 1.7024357 2.158371 14.7968855.6382599 20.4582157-.2123108.7892532-.4327545 1.6085739-.6600189 2.4440937l8.3218079-.0068111c2.2182465-8.2387371 4.3806763-16.3727341 6.4887085-23.9528751h-8.3055267c-.8110962 2.5870442-1.2805634 5.5455408-2.3447571 7.8549924-.1238403-3.2089286-.502182-6.1103616-2.0890045-7.8291602l.0054932-.0081401c-.121109-.1252573-.2545013-.2504313-.3973694-.3687944-.0381317-.0327264-.0775909-.0639577-.1170349-.0952719-.0762482-.0612997-.1551666-.1184462-.2382202-.1769217-.0775909-.0544885-.1578217-.1075652-.2408905-.1592295-.1006622-.0612166-.204071-.1197752-.3102264-.1769217-.021759-.0108812-.040863-.0245034-.0639648-.0353844l-.0014038.0027411c-.8015442-.41099-1.7718811-.6546104-2.8237762-.5443873-7.5679321.7934067-12.7202606 8.2837572-16.2312775 14.855444-1.7501068 3.2742968-3.3423309 6.8670549-4.6134186 10.658412l10.1072998-.0081406c1.1131894-3.6934283 2.3067014-7.392338 3.6349485-11.1620161zm43.9990234-8.0260163c1.1703339-1.8167286 3.0959625-4.8855314 5.3250885-4.6105967 1.2112122.1496775 2.059021 1.8847561 2.0726471 3.927496.0230865 3.38585-1.2779083 7.1120043-2.211441 10.4162035-.892746 3.1654034-1.8725433 6.3471718-2.7462769 9.4145622l7.826416-.0068111c2.2400208-9.052578 3.7438507-20.0403309-1.2710114-24.776268-4.598465-4.3398151-9.0376282 1.6235268-11.398819 5.8069363-3.3436584 5.9198174-5.8586121 12.0424728-8.21698 18.3529301l6.5689392-23.3051605c-3.5859375.0748389-7.4440002 0-7.4440002 0s-3.2293549 11.8138027-6.5458527 23.9447365l9.0811615-.0068111c2.3842775-6.2518999 5.3102266-13.4918186 8.9601289-19.1572172zm8.9901886 25.1613426c-.0019836.0062294-.0051422.0127068-.0071411.0189362.0138702-.0029068.0071411-.0189362.0071411-.0189362z"/>
  <path d="m208.5824585 29.4741669-1.3948517 3.3301163-.1892242.7361755c-.0707703.9961624.0735168 1.9869232.9117737 2.5789032.3538513.2530899.902298.2530899 1.2860413.063961 1.2779083-.6926537 2.0440826-2.0440712 2.75177-3.1694756-.0149536.6423187.0503235 1.2995872.2735138 1.8712158.332077.9675903 1.3595581 1.6602402 2.369339 1.6970367 2.2830353-.1289101 3.8535767-2.3075409 4.4864197-4.254261-.0173645.0036545-.0685272-.0140381-.2255096-.1196899-.5403137 1.6793442-2.5176849 4.0990181-4.3099213 4.0118866-.3334045-.0639572-.6872406-.2952843-.7594299-.649128-.1305695-1.1852951.4981232-2.1379318.8587799-3.1640778l.1373901-.2381363c1.6398773.0367966 3.0851593-.4694653 4.1534119-1.7337494.1448669-.1834011.2950439-.4283504.4072571-.6412373l.0078888.0015774c.312973-.6559391.4531097-1.4805775.1196899-2.1773834-.2422028-.513073-.5103302-.715826-1.3063965-.7362595-1.3881226.0939426-2.521759.7865944-3.5900116 1.6466999-2.2836151 1.88484-2.6156158 4.681448-4.6174927 6.7172947-.3593292.3457031-.7430725.6940651-1.2342987.6641617-.2314148-.1510887-.0871277-.4327507-.0585632-.6505394.6586914-1.5745201 1.3445282-3.1340904 1.9583588-4.7236443.2884674-1.1131935.2966156-2.5638695-.6002045-3.3668289-.3306732-.2381382-.865509-.1428661-1.1975861.0231743-1.1049805.5838432-1.9501343 1.7405624-2.6809082 2.708149.0081482-1.0043011.0149536-2.0590191-.6708832-2.7952805-.2681274-.1592293-.5919952-.2748508-.9254761-.174181-1.2710114.377018-2.2535553 1.6766033-2.9680481 2.7462749h-.0585632v-.376936c-.0068054-.8737278-.0421143-1.8766994-.9390106-2.2454929-.4041901-.1238461-.7729797.0435238-1.0832214.2381382-1.1622009.9104404-1.7555847 2.1815357-2.4060516 3.3668289-.9662476 1.6684628-1.7038422 3.4743938-3.2062683 4.8747311-.259903.15242-.5334167.4491158-.8450623.259903-.2177887-.1728516-.0925293-.5048523-.0503387-.7212257l3.3803711-8.0768509c-.8668365-.0204334-1.7051849-.0204334-2.5067291 0l-.4259338.9974899-.0368042-.028574c0-.5062618-.4681396-.8954887-.8940735-1.0696697-.9757233-.2163773-1.8644104.1809921-2.6455231.6573505-1.1488342.7189827-2.0415802 1.7336674-2.7751007 2.7911282l-.0079651-.0013294c-.7090149 1.0479069-1.3635406 2.2794666-1.9691467 3.3355122-.5198822.801548-1.1417694 1.7038498-2.0086823 2.1665039-.1510925.0436058-.310318.0082245-.4109955-.1006699-.1006775-.1442795-.0871277-.3756065-.0367126-.5348358l5.3250885-12.7773209h-2.4427643l-2.3542938 5.5619049c-.0952759-.5647373-.5416565-1.1485806-1.1268311-1.2724247-1.7555847-.1864738-3.1123962 1.1417675-4.2119751 2.4278145-.1394653.1645451-.3020935.4030991-.4295959.5862503l-.0127106-.002409c-.9131012 1.3472633-1.4628906 2.9707909-2.3515625 4.3071709-.7403259 1.111866-1.9869232 2.3393555-2.2046204 1.7038498-.1225281-.288475.0367126-.5770302.1374664-.8301201l3.3164062-7.8958588-2.5570526-.0353851c-.1959534.2884731-.2381439.6572685-.4341736.9240627-.102005-.338892-.2013397-.6709728-.5266113-.9240627-.7307739-.541647-1.8059235-.2381382-2.5571442.0720978-1.0426788.5251999-2.0596771 1.5161266-2.8209381 2.4273167l-.0232544-.0076427c-.7458191.9974899-1.5949554 2.4005699-2.0903473 3.452549-.59198 1.054718-1.2764893 2.2822075-2.4332886 2.8973618-.15242.0503349-.3756104.0720978-.4844208-.0803185-.1238403-.1660423-.0572205-.4109917 0-.5851707.6871796-2.0223083 2.0154114-3.7982521 2.1460724-6.0668373-.0435333-.6505413.0136261-1.3513336-.4477081-1.8358326-.3116455-.3538437-.8682404-.3320827-1.2656097-.1864738-1.154068.5484562-2.0223083 1.5746021-2.8524323 2.5775738-.021759-.8954887-.0789032-1.7759457-.650528-2.4414368-.2735291-.3035069-.6572723-.3892269-1.0478363-.3457031-1.2411957.3035088-2.1733856 1.5309963-2.9028473 2.5421906h-.0367126c.0149536-.8737278-.0503235-1.7555943-.635498-2.4060516-.3171387-.2749348-.865509-.2096481-1.2207642-.0504189-1.1771545.6002045-2.1012115 1.8494549-2.7951965 2.9191246-.288559.4695492-.6056061.9240646-.7948151 1.4303265l.310318.1006699c.7375946-1.4016685 1.6548462-2.8605671 3.0565033-3.8431053.1225281-.0285721.288559-.1157055.3824158.0299034-.0068054.0571461.0149536.1728516-.0204315.2449493l-3.4824524 8.2701359h2.592453l1.8862457-4.4923172.4980469-1.1063843c.6641541-1.0764809 1.4017487-2.3175926 2.5938416-2.9830837.1496887-.0353832.3238678-.0203495.4327545.1020832.0653687.1510906 0 .3320808-.0584717.4845009l-3.3654938 7.9992714 2.6292267-.0040703 1.4589081-3.5165062c.6436462-1.3377953 1.33638-2.6510029 2.3910217-3.8146172.4913025-.4762764.9743958-1.0696697 1.6317444-1.1989136.160553.0435238.160553.2163754.15242.3606548l-1.4806671 3.4674988-.3755951.9607754c-.3756104 1.1636162-.5062714 2.8157158.5497742 3.6907692.4191437.3251877.99617.202755 1.4438629.0367165 1.3228455-.7947388 2.037262-2.2685852 2.781662-3.5179176.0353851.4899788-.0081329 1.0615273.1007538 1.5460281.1224365.8736458.6491241 1.8915672 1.596283 2.1079445.9104462.2613106 1.6902313-.2871475 2.3190002-.9458275.5266113-.5851707.9539642-1.2274857 1.4302521-1.8194695.0857086.9607773.201416 1.913414.9607697 2.5789032.2817535.2014275.6859283.259903 1.0247345.1496811 1.3799896-.5919838 2.0440674-2.049469 2.7530823-3.2062721.0353851.4192123.1225281.8097687.1864777 1.2220879.2177124.8655052.7375946 1.970562 1.770462 2.0944061 1.4806671-.1510887 2.4401093-1.6330795 3.2062683-2.7667084.1374664.9240646.0585632 1.9570198.8614349 2.5707664.4246216.2966957 1.0397644.1374664 1.4289093-.114296 1.1704254-.8750534 1.8562775-2.1107674 2.5353851-3.2661552.0503387.1524162.15242 2.0304451.5565948 2.6441879.2884827.5049362.8301239.8954926 1.4003448.8954926 1.5459442-.1660423 2.6305695-1.7624092 3.4892578-2.9191284.028656.1170349.0150299.2613144.0150299.3905602.0789185.9104385.1592407 1.8630753.9308014 2.4414368.3470306.2313271.8451538.0871315 1.1853638-.0720978 1.0900269-.6791153 1.8126678-1.8481293 2.4196777-2.8959541l1.6329956-3.0048428c.3525238-.6287785.7267151-1.2656136 1.1704254-1.8426437.6314392-.8233089 1.3526611-1.0206642 1.1485748-.513073l-3.3668213 7.9530048-.1225128.3252678h2.5774841l2.1611023-5.1495838c.2953796-.6355057.6491394-1.2425213 1.0683441-1.8208809.4980469-.6205559 1.0914307-1.3500042 1.8208008-1.6330795.1225128-.0503349.3388977-.0720978.4109955.0871315.0367889.3334103-.1795807.6069336-.2735291.9104424l-3.1286926 7.3827839-.0639496.2231865h2.570755l.4980469-1.2057228 1.3092194-3.0919781c.6845093-1.4016685 1.5363922-2.7884693 2.8305817-3.8934402.2531738-.1728516.4981232-.4192142.8233948-.3606548.1441956.0571461.1592255.2163754.1224213.338892l-.6491242 1.5677087zm8.5477295-1.7596646c.3606567-.3905563.7947388-.7144146 1.33638-.570219.2014313.0871315.4327545.2314091.5130768.4491138.2653809.6641636.0407867 1.3649559-.2817535 1.9664898-.0104523.0175266-.0244904.0580597-.0360413.0838928-.045105.0782433-.1166992.1838989-.1584778.2535877-.8818665 1.1989975-2.1611023 1.8195515-3.6268158 1.7977905.6069336-1.3868007 1.2860413-2.7449454 2.2536316-3.9806556zm-44.5826111 1.8208809-1.3214264 3.0551815c-.6491394 1.1553879-1.4221039 2.514946-2.7149658 3.1423111-.2530823.0789108-.6286926.1374664-.8382568-.0871315-.440979-.4980392-.0585632-1.1622009.0652924-1.6834145.5036011-1.2255783.990509-2.4605408 1.5576477-3.6622791l.0005798.0001659c.3402252-.6899948.9335327-1.8304329 1.3594818-2.4836311.3824158-.4762764.8805389-.9458256 1.5309906-.8233089.1728516.0353832.3334961.1224327.4614105.2598991.5348358.6859265.1373901 1.5895558-.1007538 2.2822075zm8.3654022 3.5900173c-.5348358 1.0179214-1.4452667 2.2386818-2.5789032 2.6441879-.2231903.0503387-.4395599 0-.6001129-.1524162-.1796722-.2462807-.1592407-.6273651-.0858002-.9104424l.3755951-1.1322136 1.1336365-2.7680378c.1024933-.1863079.1937714-.3791771.2828979-.572794l.005661.0012455c.461319-1.0288868.9375916-2.2972412 1.8929749-3.0688019.2381287-.1293278.5280151-.231411.8083496-.1374683.2108917.0652866.4055176.2313271.5130768.4259415.2966156.7525406 0 1.5527592-.2749329 2.2182503l-1.4724426 3.452549zm8.2278595 2.1828652c-.3986969.2585716-.8682404.5906525-1.358139.3606529-.2967072-.2095642-.2313232-.5783577-.1891327-.8968163.3917999-1.3548241 1.0498962-2.7075691 1.6279297-3.9938641.6047668-1.2032337 1.0625305-2.5163593 2.1512146-3.488266.332077-.2096481.8737335-.3470325 1.2342987-.0871315.1442871.0571461.1960297.2163773.288559.3238583.3252716.65868.0081329 1.3949413-.1864777 2.0086842-.8450623 2.080782-1.6398926 4.2105694-3.5682526 5.7728825zm-38.9091491 3.7349586h-.2735291v.6668205h2.071228v-.6668205h-.2585602c-.161972 0-.2163849-.0503349-.2163849-.1755104v-.4545975h.681778v-.6082611h-.681778v-.5661507h.7375946c.1238403 0 .179657.0775795.179657.1687813v.1701126h.8137512v-1.0071259h-3.3272858v.668232h.2612305c.130661 0 .1470184.0694389.1470184.1632996v1.5092354c1e-7 .078907-.0558165.1319847-.1347197.1319847zm3.6154327.0009957h-.2462769v.6654091h1.9664764V39.04422h-.2408752c-.0952759 0-.1551514-.0381241-.1551514-.1456909v-1.5024223c0-.1196899.0353851-.1578178.1510773-.1578178h.2449493v-.668232h-1.9664764v.668232h.2504272c.1319885 0 .151001.0598869.151001.1578178v1.5065765c1e-7 .1156196-.0707702.1415367-.1551513.1415367zm3.9182739-1.8531113c.5648193 0 .7661591.4830894.7661591.4830894h.6995544v-1.1037254h-.6954041v.2354813s-.2994385-.2830772-.9920807-.2830772c-1.2384644 0-1.7541962.8940773-1.7541962 1.5555 0 .9907608.6395874 1.6861572 1.8561859 1.6861572 1.6889038 0 1.7664795-1.2234192 1.767807-1.3037415.0027466-.1687813.0068207-.4041786.0068207-.4041786h-1.5078278v.5783615h.4381561c0 .136055-.1088104.4681358-.5783691.4681358-.2313232 0-.7607574-.0803223-.7607574-1.0396843 1e-7-.5674781.3293305-.8723182.7539521-.8723182zm3.9081421 1.8852577h-.1741791v.6327629h1.7827454v-.6654892h-.1782379c-.1360626 0-.1769257-.1196938-.2572479-.3143082-.0652924-.1592293-.8301239-2.1583595-.8301239-2.1583595h-1.2111969s-.8205719 2.2236481-.8600311 2.3175888c-.0449371.1115532-.1143799.1550789-.2354736.1550789h-.1755219v.6654892h1.4806671v-.6327629h-.2054901c-.0884705 0-.1075745-.0680275-.0789948-.161972.0340576-.1102219.0939484-.2830734.0939484-.2830734h.8995514s.0503387.1564865.0952759.2980232c.0352935.1061554-.0775758.1470222-.145691.1470222zm-.703537-.8750572.3089142-.9227333h.009552l.2966156.9227333h-.6150818zm2.8052521.8423309h-.2055054v.6654892h1.891571v-.6654892h-.1931915c-.1319885 0-.1483612-.0720978-.1483612-.1510086v-.5075912h.421875l.7743835 1.3240891h1.1853027v-.6654892h-.2163849c-.121109 0-.1415405-.0584755-.2027588-.1387978-.0598755-.0802383-.4368134-.6668205-.4368134-.6668205s.5511169-.1537476.5511169-.7389183-.4898987-.7948189-.6994629-.8478966c-.2082367-.0544052-.6586914-.0802345-.7797852-.0802345h-2.1474915v.6668205h.2123108c.133316 0 .1496735.0666962.1496735.157814v1.4915428c3e-7 .0667-.0095517.1564903-.1564786.1564903zm1.3445129-1.8480453h.4668121c.1360626 0 .3796844.047596.3796844.3306694 0 .2095642-.1579132.3157196-.4178162.3157196h-.4286804v-.646389zm4.1161347 2.5685234c1.0002289 0 1.7868195-.5443039 1.7868195-1.612648 0-1.0165939-.7498779-1.6290092-1.7731934-1.6290092-1.3173676 0-1.7950592.8818703-1.7950592 1.5882263 0 .937603.6586914 1.6534309 1.7814331 1.6534309zm.0013275-2.581562c.3334198 0 .5770264.2231865.5770264.9349442 0 .7715607-.2531586.9866066-.5429688.9866066-.2913055 0-.5947266-.1728516-.5947266-1.0479088 0-.5374909.2055054-.873642.560669-.873642z"/>
</g>
</svg>
